<svg width="32" height="30" viewBox="0 0 32 30" fill="none" xmlns="http://www.w3.org/2000/svg">
<path id="Vector" d="M17.5768 4.12216H13.9884V2.28269C13.9884 1.80989 14.1774 1.35646 14.5139 1.02214C14.8504 0.687818 15.3067 0.5 15.7826 0.5C16.2584 0.5 16.7148 0.687818 17.0513 1.02214C17.3877 1.35646 17.5768 1.80989 17.5768 2.28269V4.12216ZM10.2857 26.2298C10.2145 25.9343 10.0989 25.651 9.94287 25.3896C9.94287 25.3101 9.84001 25.2533 9.7943 25.1852C9.74859 25.1171 9.69145 25.0489 9.63431 24.9922C9.59066 24.9375 9.54081 24.8879 9.48574 24.8446L9.26861 24.6515L9.1429 24.538L8.86863 24.3904L8.70864 24.3109L8.38866 24.2087H8.24009C8.07483 24.173 7.90636 24.154 7.73726 24.1519C7.56811 24.1533 7.39958 24.1724 7.23443 24.2087H7.08586L6.76588 24.3109L6.60588 24.3904L6.33161 24.538L6.18305 24.6402L5.95449 24.8332L5.81735 24.9808L5.7145 25.1625C5.7145 25.242 5.61165 25.2987 5.56594 25.3782C5.40813 25.6388 5.29244 25.9223 5.2231 26.2185C5.1821 26.4205 5.15916 26.6256 5.15453 26.8316C5.15453 27.5333 5.43506 28.2062 5.93442 28.7024C6.43378 29.1986 7.11106 29.4773 7.81725 29.4773C8.52345 29.4773 9.20073 29.1986 9.70009 28.7024C10.1994 28.2062 10.48 27.5333 10.48 26.8316C10.4773 26.6249 10.4505 26.4191 10.4 26.2185L10.2857 26.2298ZM27.542 26.2298C27.4708 25.9343 27.3552 25.651 27.1992 25.3896C27.1992 25.3101 27.0963 25.242 27.0506 25.1738L26.8906 24.9922C26.847 24.9375 26.7971 24.8879 26.742 24.8446L26.5249 24.6515L26.3649 24.5493C26.2813 24.4935 26.1934 24.4441 26.1021 24.4017L25.9421 24.3222L25.6221 24.22H25.4735C25.3083 24.1844 25.1398 24.1653 24.9707 24.1633C24.8016 24.1647 24.633 24.1837 24.4679 24.22H24.3193L23.9993 24.3222L23.8393 24.4017L23.5651 24.5493L23.4165 24.6515L23.1879 24.8446L23.0394 24.9922C22.9933 25.0555 22.9437 25.1161 22.8908 25.1738C22.8908 25.242 22.788 25.3101 22.7422 25.3896C22.5795 25.6477 22.4635 25.932 22.3994 26.2298C22.359 26.4357 22.3361 26.6446 22.3308 26.8543C22.3308 27.556 22.6114 28.2289 23.1107 28.7251C23.6101 29.2213 24.2874 29.5 24.9936 29.5C25.6998 29.5 26.377 29.2213 26.8764 28.7251C27.3757 28.2289 27.6563 27.556 27.6563 26.8543C27.6529 26.6439 27.6261 26.4344 27.5763 26.2298H27.542ZM31.9989 16.1922V23.323C31.9989 23.4975 31.9643 23.6702 31.8972 23.8314C31.83 23.9926 31.7315 24.1391 31.6073 24.2624C31.4831 24.3858 31.3358 24.4836 31.1735 24.5504C31.0113 24.6172 30.8374 24.6515 30.6619 24.6515H29.839C29.7264 24.3986 29.5926 24.1555 29.4391 23.9248L29.3362 23.7886C29.1877 23.5659 29.0195 23.3569 28.8334 23.1641L28.6962 23.0051C28.4829 22.7871 28.2495 22.5895 27.9991 22.4146C27.729 22.2296 27.442 22.0699 27.142 21.9377L26.9706 21.8696C26.7306 21.7788 26.4678 21.6993 26.2164 21.6312L25.9764 21.5744C25.3345 21.4534 24.6755 21.4534 24.0336 21.5744L23.7936 21.6312C23.5308 21.6993 23.2794 21.7788 23.0279 21.8696H22.8565C22.5565 22.0018 22.2696 22.1614 21.9994 22.3465C21.7491 22.5213 21.5157 22.719 21.3023 22.937L21.1652 23.0732C20.9787 23.2687 20.8069 23.4774 20.6509 23.6977C20.6509 23.6977 20.5823 23.7886 20.5595 23.834C20.406 24.0647 20.2722 24.3078 20.1595 24.5607H12.5713C12.4586 24.3078 12.3248 24.0647 12.1713 23.834L12.0685 23.6864C11.917 23.4694 11.7489 23.2644 11.5656 23.0732L11.4285 23.0051C11.215 22.7907 10.9816 22.5969 10.7314 22.426C10.4612 22.2409 10.1743 22.0813 9.8743 21.9491L9.7143 21.8696C9.46743 21.7766 9.21564 21.697 8.96006 21.6312L8.72007 21.5744C8.0782 21.4534 7.41917 21.4534 6.77731 21.5744L6.53732 21.6312C6.28173 21.697 6.02995 21.7766 5.78307 21.8696L5.6345 21.9264C5.33451 22.0585 5.04757 22.2182 4.7774 22.4033C4.52725 22.5741 4.29385 22.768 4.08029 22.9824L3.94316 23.1186C3.75989 23.3098 3.59178 23.5148 3.44033 23.7318C3.39964 23.7763 3.36505 23.8259 3.33747 23.8794C3.18395 24.1101 3.05016 24.3532 2.93749 24.6061H2.13753C1.56364 24.5971 1.01668 24.3628 0.616216 23.9542C0.215755 23.5457 -0.00561882 22.9962 0.000493886 22.426V7.66484C-0.00557301 7.383 0.044306 7.10273 0.147282 6.84005C0.250257 6.57737 0.404312 6.33742 0.600644 6.13392C0.796976 5.93041 1.03174 5.76732 1.29152 5.65399C1.55131 5.54065 1.83102 5.47928 2.11468 5.47338H21.028C22.4447 5.50909 23.7902 6.09726 24.7739 7.11076C25.7576 8.12426 26.3004 9.48167 26.2849 10.8896C26.2849 11.0635 26.3196 11.2357 26.3869 11.3963C26.4542 11.5568 26.5529 11.7025 26.6772 11.825C26.8015 11.9474 26.949 12.0442 27.1112 12.1097C27.2733 12.1753 27.447 12.2082 27.622 12.2067H28.1134C28.6331 12.2111 29.1466 12.3181 29.6243 12.5215C30.1019 12.7249 30.5341 13.0206 30.8957 13.3915C31.2572 13.7624 31.541 14.201 31.7304 14.6818C31.9198 15.1626 32.0111 15.6761 31.9989 16.1922ZM12.7884 14.0689C12.7765 13.7205 12.6272 13.3908 12.3728 13.1508C12.1184 12.9107 11.7793 12.7797 11.4285 12.7858H9.4286V10.6511C9.44578 10.4671 9.42413 10.2816 9.36503 10.1063C9.30593 9.93111 9.21069 9.77006 9.08539 9.63348C8.96009 9.4969 8.80749 9.3878 8.63734 9.31315C8.46719 9.2385 8.28324 9.19994 8.09724 9.19994C7.91124 9.19994 7.72729 9.2385 7.55714 9.31315C7.38699 9.3878 7.23439 9.4969 7.10909 9.63348C6.98379 9.77006 6.88855 9.93111 6.82945 10.1063C6.77035 10.2816 6.7487 10.4671 6.76588 10.6511V12.7858H4.74312C4.4113 12.8164 4.10294 12.969 3.87845 13.2137C3.65396 13.4584 3.52952 13.7776 3.52952 14.1087C3.52952 14.4398 3.65396 14.7589 3.87845 15.0036C4.10294 15.2483 4.4113 15.4009 4.74312 15.4315H6.76588V17.5321C6.79665 17.8618 6.95022 18.1682 7.1965 18.3912C7.44277 18.6143 7.764 18.7379 8.09724 18.7379C8.43048 18.7379 8.75171 18.6143 8.99798 18.3912C9.24426 18.1682 9.39783 17.8618 9.4286 17.5321V15.3861H11.4285C11.6051 15.3891 11.7804 15.3573 11.9446 15.2926C12.1087 15.2279 12.2583 15.1315 12.3847 15.0091C12.5112 14.8866 12.6119 14.7405 12.6812 14.5791C12.7505 14.4177 12.787 14.2443 12.7884 14.0689ZM23.6565 10.5149C23.6565 9.64456 23.3085 8.8099 22.6891 8.19449C22.0698 7.57909 21.2297 7.23336 20.3538 7.23336H17.3482V12.3771H23.6565V10.5149Z" fill="url(#paint0_linear_1_297)"/>
<defs>
<linearGradient id="paint0_linear_1_297" x1="4.41379" y1="1.43548" x2="25.9159" y2="30.6089" gradientUnits="userSpaceOnUse">
<stop stop-color="#82FFBB" stop-opacity="0.97"/>
<stop offset="0.962489" stop-color="#3DFC72"/>
</linearGradient>
</defs>
</svg>
