<svg width="32" height="32" viewBox="0 0 32 32" fill="none" xmlns="http://www.w3.org/2000/svg">
<path id="Vector" d="M14.5486 10.7082C14.036 11.2714 13.7515 11.9979 13.7486 12.7514C13.7414 11.9966 13.4529 11.2703 12.9371 10.7082C13.5771 11.2553 13.9086 11.2553 14.5486 10.7082ZM32 15.699C32 16.2468 31.7772 16.7722 31.3807 17.1596C30.9842 17.5469 30.4465 17.7646 29.8857 17.7646H27.9657V20.9689C27.9642 21.5701 27.8415 22.165 27.6047 22.7199C27.3678 23.2747 27.0214 23.7785 26.5852 24.2026C26.1491 24.6266 25.6317 24.9626 25.0626 25.1913C24.4935 25.4199 23.8839 25.5369 23.2686 25.5354H17.4857V32H9.31429V24.9325C6.63712 24.1417 4.28904 22.5351 2.61323 20.3475C0.937415 18.1599 0.0217281 15.5061 0 12.7738C0.045185 9.34367 1.48265 6.07144 3.99644 3.67633C6.51022 1.28122 9.89461 -0.0407627 13.4057 0.000958355C16.4954 -0.0253446 19.4982 0.99991 21.8985 2.90073C24.2988 4.80155 25.9469 7.45937 26.56 10.418L32 15.699ZM18.7771 11.5345C18.7771 9.83737 18.64 9.70339 16.9029 9.70339C16.1984 9.70647 15.515 9.93819 14.96 10.3621L15.0743 10.2616C15.3677 9.97726 15.6005 9.63896 15.7594 9.26625C15.9183 8.89354 16.0001 8.49379 16.0001 8.09004C16.0001 7.68629 15.9183 7.28654 15.7594 6.91383C15.6005 6.54111 15.3677 6.20282 15.0743 5.91844C13.84 4.71261 13.6457 4.71261 12.4114 5.91844C12.1181 6.20282 11.8852 6.54111 11.7263 6.91383C11.5674 7.28654 11.4856 7.68629 11.4856 8.09004C11.4856 8.49379 11.5674 8.89354 11.7263 9.26625C11.8852 9.63896 12.1181 9.97726 12.4114 10.2616L12.5257 10.3621C11.9743 9.93977 11.295 9.70809 10.5943 9.70339C8.84572 9.70339 8.70857 9.83737 8.70857 11.5345C8.70857 11.9386 8.79024 12.3388 8.9489 12.712C9.10755 13.0853 9.34008 13.4242 9.63313 13.7095C9.92618 13.9948 10.274 14.2207 10.6566 14.3743C11.0393 14.528 11.4492 14.6063 11.8629 14.6048C13.6 14.6048 13.7486 14.4709 13.7486 12.7738C13.7486 14.4709 13.8857 14.6048 15.6229 14.6048C16.0365 14.6063 16.4465 14.528 16.8291 14.3743C17.2117 14.2207 17.5595 13.9948 17.8526 13.7095C18.1456 13.4242 18.3782 13.0853 18.5368 12.712C18.6955 12.3388 18.7771 11.9386 18.7771 11.5345Z" fill="url(#paint0_linear_1_301)"/>
<defs>
<linearGradient id="paint0_linear_1_301" x1="0" y1="0" x2="32" y2="44" gradientUnits="userSpaceOnUse">
<stop stop-color="#F9EC7D"/>
<stop offset="1" stop-color="#F5B100"/>
</linearGradient>
</defs>
</svg>
