<svg width="30" height="32" viewBox="0 0 30 32" fill="none" xmlns="http://www.w3.org/2000/svg">
<path id="Vector" d="M28.3681 29.2857H25.4364V2.71429C25.4364 2.12702 25.1979 1.56381 24.7733 1.14855C24.3488 0.733291 23.7729 0.5 23.1725 0.5H6.82748C6.22707 0.5 5.65125 0.733291 5.22669 1.14855C4.80214 1.56381 4.56362 2.12702 4.56362 2.71429V29.2857H1.63193C1.33172 29.2857 1.04381 29.4024 0.831534 29.61C0.619257 29.8176 0.5 30.0992 0.5 30.3929C0.5 30.6865 0.619257 30.9681 0.831534 31.1757C1.04381 31.3834 1.33172 31.5 1.63193 31.5H28.3681C28.6683 31.5 28.9562 31.3834 29.1685 31.1757C29.3807 30.9681 29.5 30.6865 29.5 30.3929C29.5 30.0992 29.3807 29.8176 29.1685 29.61C28.9562 29.4024 28.6683 29.2857 28.3681 29.2857ZM19.856 20.4286H16.8903V17.4946H19.856V20.4286ZM19.856 14.7489H16.8903V11.815H19.856V14.7489ZM12.5664 5.31607H13.8681V4.04286C13.8681 3.74922 13.9873 3.46762 14.1996 3.25999C14.4119 3.05236 14.6998 2.93571 15 2.93571C15.3002 2.93571 15.5881 3.05236 15.8004 3.25999C16.0127 3.46762 16.1319 3.74922 16.1319 4.04286V5.31607H17.4336C17.7338 5.31607 18.0218 5.43272 18.234 5.64035C18.4463 5.84798 18.5656 6.12958 18.5656 6.42321C18.5656 6.71685 18.4463 6.99845 18.234 7.20608C18.0218 7.41371 17.7338 7.53036 17.4336 7.53036H16.1319V8.80357C16.1319 9.0972 16.0127 9.37881 15.8004 9.58644C15.5881 9.79407 15.3002 9.91071 15 9.91071C14.6998 9.91071 14.4119 9.79407 14.1996 9.58644C13.9873 9.37881 13.8681 9.0972 13.8681 8.80357V7.53036H12.5664C12.2661 7.53036 11.9782 7.41371 11.766 7.20608C11.5537 6.99845 11.4344 6.71685 11.4344 6.42321C11.4344 6.12958 11.5537 5.84798 11.766 5.64035C11.9782 5.43272 12.2661 5.31607 12.5664 5.31607ZM10.144 11.815H13.1097V14.7489H10.144V11.815ZM10.144 17.4946H13.1097V20.4286H10.144V17.4946ZM12.1815 29.2857V26.6286C12.2688 25.9548 12.6044 25.3353 13.1254 24.8862C13.6464 24.4371 14.3169 24.1894 15.0113 24.1894C15.7057 24.1894 16.3763 24.4371 16.8972 24.8862C17.4182 25.3353 17.7538 25.9548 17.8411 26.6286V29.2857H12.1815Z" fill="url(#paint0_linear_1_289)"/>
<defs>
<linearGradient id="paint0_linear_1_289" x1="4.5" y1="1.5" x2="28.3293" y2="28.9096" gradientUnits="userSpaceOnUse">
<stop stop-color="#82C3FF"/>
<stop offset="0.962489" stop-color="#3DA9FC"/>
</linearGradient>
</defs>
</svg>
