<svg width="36" height="28" viewBox="0 0 36 28" fill="none" xmlns="http://www.w3.org/2000/svg">
<path id="Vector" d="M6.4 5.7875H6.75V27.9997H6.4625C5.6856 28.0078 4.91473 27.8644 4.19413 27.5776C3.47352 27.2909 2.81739 26.8665 2.26338 26.3287C1.70938 25.791 1.26841 25.1505 0.965801 24.4441C0.663191 23.7376 0.504894 22.9792 0.5 22.2122V11.5503C0.516462 10.0163 1.14533 8.5506 2.25001 7.4716C3.3547 6.39259 4.84599 5.78742 6.4 5.7875ZM29.6 5.7875H29.3125V27.9997H29.6C31.1583 27.9997 32.6533 27.3911 33.7587 26.3068C34.8641 25.2225 35.4901 23.7505 35.5 22.2122V11.5503C35.4835 10.0163 34.8547 8.5506 33.75 7.4716C32.6453 6.39259 31.154 5.78742 29.6 5.7875ZM24.1125 5.7875H26.8125V27.9997H9.25V5.7875H11.95V1.23401C11.95 0.90673 12.0817 0.592854 12.3161 0.361432C12.5505 0.13001 12.8685 0 13.2 0H22.925C23.2565 0 23.5745 0.13001 23.8089 0.361432C24.0433 0.592854 24.175 0.90673 24.175 1.23401L24.1125 5.7875ZM14.3875 5.7875H21.6125V2.46802H14.3875V5.7875ZM21.8875 16.6098C21.8875 16.2825 21.7558 15.9686 21.5214 15.7372C21.287 15.5058 20.969 15.3758 20.6375 15.3758H19.25V14.0183C19.25 13.6911 19.1183 13.3772 18.8839 13.1458C18.6495 12.9143 18.3315 12.7843 18 12.7843C17.6685 12.7843 17.3505 12.9143 17.1161 13.1458C16.8817 13.3772 16.75 13.6911 16.75 14.0183V15.3758H15.375C15.0435 15.3758 14.7255 15.5058 14.4911 15.7372C14.2567 15.9686 14.125 16.2825 14.125 16.6098C14.125 16.937 14.2567 17.2509 14.4911 17.4823C14.7255 17.7138 15.0435 17.8438 15.375 17.8438H16.75V19.1888C16.75 19.5161 16.8817 19.83 17.1161 20.0614C17.3505 20.2928 17.6685 20.4229 18 20.4229C18.3315 20.4229 18.6495 20.2928 18.8839 20.0614C19.1183 19.83 19.25 19.5161 19.25 19.1888V17.8438H20.625C20.9565 17.8438 21.2745 17.7138 21.5089 17.4823C21.7433 17.2509 21.875 16.937 21.875 16.6098H21.8875Z" fill="url(#paint0_linear_1_293)"/>
<defs>
<linearGradient id="paint0_linear_1_293" x1="1.57143" y1="13.2821" x2="26.7503" y2="32.4134" gradientUnits="userSpaceOnUse">
<stop stop-color="#FF8282"/>
<stop offset="1" stop-color="#FF4F4F"/>
</linearGradient>
</defs>
</svg>
