<svg width="32" height="32" viewBox="0 0 32 32" fill="none" xmlns="http://www.w3.org/2000/svg">
<g id="profile 1">
<path id="Vector" d="M20.24 8.00002C21.2366 8.00178 22.192 8.39849 22.8967 9.10325C23.6015 9.808 23.9982 10.7633 24 11.76V20.24C23.9982 21.2367 23.6015 22.192 22.8967 22.8968C22.192 23.6015 21.2366 23.9983 20.24 24H11.76C10.7633 23.9983 9.80794 23.6015 9.10318 22.8968C8.39843 22.192 8.00172 21.2367 7.99996 20.24V11.76C8.00172 10.7633 8.39843 9.808 9.10318 9.10325C9.80794 8.39849 10.7633 8.00178 11.76 8.00002H20.24ZM20.24 6.66669H11.76C10.4091 6.66669 9.11361 7.2033 8.15843 8.15849C7.20324 9.11367 6.66663 10.4092 6.66663 11.76V20.24C6.66663 21.5909 7.20324 22.8864 8.15843 23.8415C9.11361 24.7967 10.4091 25.3334 11.76 25.3334H20.24C21.5908 25.3334 22.8863 24.7967 23.8415 23.8415C24.7967 22.8864 25.3333 21.5909 25.3333 20.24V11.76C25.3333 10.4092 24.7967 9.11367 23.8415 8.15849C22.8863 7.2033 21.5908 6.66669 20.24 6.66669ZM20.32 22H11.6533C11.4765 22 11.3069 21.9298 11.1819 21.8048C11.0569 21.6797 10.9866 21.5102 10.9866 21.3334V20.48C10.9884 19.5565 11.3565 18.6713 12.0102 18.0189C12.6639 17.3664 13.5497 17 14.4733 17H17.4733C18.3969 17 19.2827 17.3664 19.9364 18.0189C20.5901 18.6713 20.9582 19.5565 20.96 20.48V21.3334C20.9601 21.5056 20.8935 21.6713 20.7742 21.7956C20.6549 21.9199 20.4921 21.9931 20.32 22ZM12.32 20.6667H19.6533V20.4734C19.6515 19.9034 19.4239 19.3574 19.0202 18.955C18.6166 18.5526 18.0699 18.3267 17.5 18.3267H14.5C13.93 18.3267 13.3833 18.5526 12.9797 18.955C12.576 19.3574 12.3484 19.9034 12.3466 20.4734L12.32 20.6667ZM16 16C15.4093 16 14.8318 15.8249 14.3407 15.4967C13.8495 15.1685 13.4667 14.702 13.2406 14.1563C13.0146 13.6106 12.9554 13.01 13.0707 12.4307C13.1859 11.8513 13.4704 11.3192 13.8881 10.9015C14.3058 10.4838 14.8379 10.1993 15.4173 10.0841C15.9966 9.96883 16.5972 10.028 17.1429 10.254C17.6886 10.4801 18.1551 10.8629 18.4833 11.3541C18.8115 11.8452 18.9866 12.4226 18.9866 13.0134C18.9849 13.8049 18.6696 14.5636 18.1099 15.1233C17.5502 15.683 16.7915 15.9983 16 16ZM16 11.3334C15.673 11.3334 15.3533 11.4303 15.0814 11.612C14.8095 11.7937 14.5976 12.0519 14.4725 12.354C14.3473 12.6561 14.3146 12.9885 14.3784 13.3092C14.4422 13.63 14.5997 13.9245 14.8309 14.1558C15.0621 14.387 15.3567 14.5445 15.6774 14.6083C15.9981 14.672 16.3306 14.6393 16.6327 14.5142C16.9348 14.389 17.193 14.1771 17.3747 13.9052C17.5563 13.6333 17.6533 13.3137 17.6533 12.9867C17.6533 12.5482 17.4791 12.1277 17.169 11.8176C16.859 11.5075 16.4384 11.3334 16 11.3334Z" fill="#28587A"/>
</g>
</svg>
