<svg width="32" height="32" viewBox="0 0 32 32" fill="none" xmlns="http://www.w3.org/2000/svg">
<g id="reminder (1) 1">
<path id="Vector" d="M20.6 5.60669H11.4C10.1458 5.60669 8.94282 6.10446 8.05534 6.99069C7.16786 7.87692 6.66839 9.07915 6.66663 10.3334V21.6667C6.66839 22.9209 7.16786 24.1231 8.05534 25.0094C8.94282 25.8956 10.1458 26.3934 11.4 26.3934H20.6C21.8542 26.3934 23.0571 25.8956 23.9446 25.0094C24.8321 24.1231 25.3315 22.9209 25.3333 21.6667V10.3334C25.3315 9.07915 24.8321 7.87692 23.9446 6.99069C23.0571 6.10446 21.8542 5.60669 20.6 5.60669ZM24 21.6667C23.9982 22.5673 23.6392 23.4304 23.0018 24.0665C22.3643 24.7027 21.5005 25.06 20.6 25.06H11.4C10.4994 25.06 9.63558 24.7027 8.99815 24.0665C8.36072 23.4304 8.00173 22.5673 7.99996 21.6667V10.3334C8.00173 9.43278 8.36072 8.56968 8.99815 7.9335C9.63558 7.29732 10.4994 6.94002 11.4 6.94002H20.6C21.5005 6.94002 22.3643 7.29732 23.0018 7.9335C23.6392 8.56968 23.9982 9.43278 24 10.3334V21.6667ZM14.1333 11.5267C14.1346 11.7524 14.0689 11.9735 13.9444 12.1618C13.82 12.3502 13.6424 12.4973 13.4342 12.5847C13.226 12.672 12.9966 12.6955 12.775 12.6523C12.5534 12.609 12.3497 12.501 12.1896 12.3418C12.0295 12.1827 11.9202 11.9795 11.8757 11.7582C11.8312 11.5369 11.8534 11.3073 11.9394 11.0987C12.0255 10.89 12.1716 10.7115 12.3593 10.586C12.5469 10.4604 12.7675 10.3934 12.9933 10.3934C13.1427 10.3925 13.2908 10.4211 13.429 10.4777C13.5673 10.5343 13.693 10.6176 13.799 10.7229C13.9049 10.8283 13.989 10.9535 14.0464 11.0914C14.1038 11.2294 14.1333 11.3773 14.1333 11.5267ZM15.2466 10.86H20.14V12.1934H15.2466V10.86ZM14.1333 16C14.1333 16.2255 14.0664 16.4459 13.9412 16.6334C13.8159 16.8208 13.6379 16.967 13.4296 17.0532C13.2212 17.1395 12.992 17.1621 12.7709 17.1181C12.5498 17.0741 12.3466 16.9656 12.1872 16.8061C12.0278 16.6467 11.9192 16.4436 11.8752 16.2224C11.8312 16.0013 11.8538 15.7721 11.9401 15.5638C12.0264 15.3555 12.1725 15.1774 12.3599 15.0521C12.5474 14.9269 12.7678 14.86 12.9933 14.86C13.2956 14.86 13.5856 14.9801 13.7994 15.1939C14.0132 15.4077 14.1333 15.6977 14.1333 16ZM15.2466 15.3334H20.14V16.6667H15.2466V15.3334ZM14.1333 20.4734C14.1333 20.6988 14.0664 20.9192 13.9412 21.1067C13.8159 21.2942 13.6379 21.4403 13.4296 21.5266C13.2212 21.6129 12.992 21.6354 12.7709 21.5915C12.5498 21.5475 12.3466 21.4389 12.1872 21.2795C12.0278 21.12 11.9192 20.9169 11.8752 20.6958C11.8312 20.4746 11.8538 20.2454 11.9401 20.0371C12.0264 19.8288 12.1725 19.6507 12.3599 19.5255C12.5474 19.4002 12.7678 19.3334 12.9933 19.3334C13.1432 19.3325 13.2919 19.3614 13.4306 19.4183C13.5693 19.4753 13.6953 19.5592 13.8014 19.6653C13.9074 19.7713 13.9913 19.8973 14.0483 20.0361C14.1053 20.1748 14.1342 20.3234 14.1333 20.4734ZM15.2466 19.8067H20.14V21.14H15.2466V19.8067Z" fill="#28587A"/>
</g>
</svg>
