<svg width="24" height="24" viewBox="0 0 24 24" fill="none" xmlns="http://www.w3.org/2000/svg">
<g id="right 1">
<path id="Vector" d="M15.065 12.285C15.0291 12.3768 14.9747 12.4602 14.905 12.53L12.405 15.03C12.2636 15.1693 12.0735 15.2482 11.875 15.25C11.731 15.2483 11.5905 15.2051 11.4704 15.1257C11.3502 15.0463 11.2555 14.9339 11.1975 14.8021C11.1395 14.6703 11.1207 14.5245 11.1433 14.3823C11.1659 14.2401 11.229 14.1073 11.325 14L12.56 12.76H9.625C9.42609 12.76 9.23532 12.681 9.09467 12.5403C8.95402 12.3997 8.875 12.2089 8.875 12.01C8.875 11.8111 8.95402 11.6203 9.09467 11.4797C9.23532 11.339 9.42609 11.26 9.625 11.26H12.56L11.325 10C11.1925 9.85783 11.1204 9.66978 11.1238 9.47548C11.1273 9.28118 11.206 9.09579 11.3434 8.95838C11.4808 8.82097 11.6662 8.74225 11.8605 8.73883C12.0548 8.7354 12.2428 8.80752 12.385 8.94L14.885 11.44C14.9547 11.5098 15.0091 11.5932 15.045 11.685C15.0813 11.7721 15.1 11.8656 15.1 11.96C15.1 12.0544 15.0813 12.1479 15.045 12.235L15.065 12.285Z" fill="#EF4565"/>
</g>
</svg>
