<svg width="32" height="32" viewBox="0 0 32 32" fill="none" xmlns="http://www.w3.org/2000/svg">
<g id="search 1">
<path id="Vector" d="M25.1334 24.1467L20.88 19.92C21.88 18.7537 22.5229 17.3241 22.7321 15.8022C22.9412 14.2802 22.7077 12.7302 22.0595 11.3373C21.4112 9.94453 20.3756 8.76782 19.0765 7.94784C17.7773 7.12786 16.2696 6.69929 14.7334 6.71335C13.4523 6.72725 12.1932 7.04864 11.0622 7.65047C9.93118 8.2523 8.96124 9.11697 8.23399 10.1717C7.50674 11.2265 7.04345 12.4405 6.8831 13.7116C6.72275 14.9827 6.87003 16.2737 7.31254 17.4761C7.75506 18.6784 8.47987 19.7569 9.42599 20.6207C10.3721 21.4846 11.5119 22.1086 12.7494 22.4402C13.9869 22.7719 15.286 22.8014 16.5373 22.5264C17.7886 22.2514 18.9556 21.6799 19.94 20.86L24.1934 25.0933C24.2557 25.1551 24.3295 25.204 24.4108 25.2372C24.492 25.2704 24.579 25.2872 24.6667 25.2867C24.7544 25.2872 24.8414 25.2704 24.9226 25.2372C25.0039 25.204 25.0777 25.1551 25.14 25.0933C25.2021 25.0309 25.2512 24.9569 25.2844 24.8754C25.3177 24.7939 25.3345 24.7066 25.3339 24.6186C25.3333 24.5306 25.3152 24.4436 25.2808 24.3626C25.2464 24.2816 25.1963 24.2082 25.1334 24.1467ZM8.00003 14.7333C7.98681 13.3989 8.37046 12.0905 9.10225 10.9745C9.83404 9.85849 10.881 8.9851 12.1101 8.46523C13.3392 7.94536 14.6951 7.80247 16.0056 8.0547C17.3161 8.30693 18.5221 8.9429 19.4705 9.88187C20.4188 10.8208 21.0668 12.0204 21.332 13.3284C21.5973 14.6363 21.4679 15.9935 20.9603 17.2278C20.4527 18.462 19.5897 19.5176 18.481 20.2604C17.3723 21.0033 16.0679 21.3999 14.7334 21.4C12.958 21.4036 11.2534 20.7045 9.99176 19.4554C8.73015 18.2063 8.01411 16.5087 8.00003 14.7333Z" fill="#28587A"/>
</g>
</svg>
